# xmcd CD database file
# Generated: Wed Nov 14 18:59:36 2001 by KSCD
# 
# Track frame offsets:
#       150
#       13172
#       31028
#       41741
#       55472
#       69609
#       83157
#       97696
#       111998
#       122716
#       135581
#       149066
#       167008
#       182883
#       194668
#       209023
#       218988
#
# Disc length: 3163 seconds
#
# Revision: 2
# Processed by: cddbd v1.4PL0 Copyright (c) Steve Scherf et al.
# Submitted via: Kscd 1.2.7
#
DISCID=060c5911
DTITLE=Lynn Anderson - Live At Billy Bob's Texas
DYEAR=1900
DGENRE=
TTITLE0=Listen To The Country Song
TTITLE1=Someday Soon
TTITLE2=Even Cowgirls Get The Blues
TTITLE3=Smile For Me
TTITLE4=Top Of The World
TTITLE5=Isn't It Always Love
TTITLE6=Cry
TTITLE7=Rose Garden
TTITLE8=What A Man My Man Is
TTITLE9=I've Never Loved Anyone More
TTITLE10=How Can I Unlove You
TTITLE11=Under The Boardwalk
TTITLE12=Faithless Love
TTITLE13=You're My Man
TTITLE14=Rocky Top
TTITLE15=I've Been Everywhere
TTITLE16=What Fools Say
EXTD=
EXTT0=
EXTT1=
EXTT2=
EXTT3=
EXTT4=
EXTT5=
EXTT6=
EXTT7=
EXTT8=
EXTT9=
EXTT10=
EXTT11=
EXTT12=
EXTT13=
EXTT14=
EXTT15=
EXTT16=
PLAYORDER=
